<svg width="31" height="28" viewBox="0 0 31 28" fill="none" xmlns="http://www.w3.org/2000/svg">
<path d="M27.8125 16.5859L30.1992 6.02344C30.3516 5.26172 29.793 4.5 28.9805 4.5H9.07422L8.61719 2.26562C8.46484 1.70703 7.95703 1.25 7.39844 1.25H2.21875C1.50781 1.25 1 1.80859 1 2.46875V3.28125C1 3.99219 1.50781 4.5 2.21875 4.5H5.72266L9.32812 21.9688C8.46484 22.4766 7.90625 23.3906 7.90625 24.4062C7.90625 25.9805 9.17578 27.25 10.75 27.25C12.2734 27.25 13.5938 25.9805 13.5938 24.4062C13.5938 23.6445 13.2383 22.9336 12.7305 22.375H23.3438C22.8359 22.9336 22.5312 23.6445 22.5312 24.4062C22.5312 25.9805 23.8008 27.25 25.375 27.25C26.8984 27.25 28.2188 25.9805 28.2188 24.4062C28.2188 23.2891 27.5586 22.3242 26.5938 21.8672L26.8477 20.6484C27.0508 19.8867 26.4414 19.125 25.6797 19.125H12.0703L11.7148 17.5H26.5938C27.1523 17.5 27.6602 17.1445 27.8125 16.5859Z" fill="#FFC725" stroke="black"/>
</svg>
